<svg width="538" height="58" viewBox="0 0 538 58" fill="none" xmlns="http://www.w3.org/2000/svg">
<g clip-path="url(#clip0_671_77372)">
<path d="M0 0V53.8197H12.7412V44.6827L22.7038 32.7791L37.1725 53.8197H52.6117L30.9549 22.9897L50.2599 0H35.9322L12.7412 27.5119V0H0Z" fill="#08536B"/>
<path d="M143.634 53.8197V36.9872L143.679 36.9107L164.941 0H150.762L137.304 24.2702L123.685 0H109.82L130.648 37.1564V53.8197H143.634Z" fill="#08536B"/>
<path d="M221.325 26.9119C221.325 10.8123 209.466 0 191.812 0H170.594V53.8238H191.812C209.466 53.8238 221.325 43.0075 221.325 26.9159V26.9119ZM191.324 42.8665H183.339V10.9572H191.324C201.758 10.9572 208.499 17.2191 208.499 26.9159C208.499 36.6127 201.758 42.8705 191.324 42.8705V42.8665Z" fill="#08536B"/>
<path d="M270.307 10.8727V0H228.766V53.8197H270.553V42.9511H241.511V32.022H267.948V21.8017H241.511V10.8727H270.307Z" fill="#08536B"/>
<path d="M342.215 53.8197V0H329.663L311.16 34.1281L292.656 0H280.016V53.8197H292.358V25.4582L307.217 53.8197H315.102L329.881 25.6192V53.8197H342.215Z" fill="#08536B"/>
<path d="M388.667 43.9014L392.488 53.8238H406.063L383.572 0H370.276L347.781 53.8197H361.437L365.262 43.8974H388.663L388.667 43.9014ZM376.964 13.8606L384.458 33.0247H369.559L376.964 13.8606Z" fill="#08536B"/>
<path d="M452.465 53.8197H463.036V0H450.371V33.1214L422.307 0H411.656V53.8197H424.401V21.701L452.465 53.8197Z" fill="#08536B"/>
<path d="M101.566 21.7981H73.8125V32.0224H101.566V21.7981Z" fill="#08536B"/>
<path d="M102.142 42.9457H73.8125V53.8184H102.142V42.9457Z" fill="#08536B"/>
<path d="M69.7738 21.7985H60.375V32.0147H69.7738V21.7985Z" fill="#C4A946"/>
<path d="M69.7738 0H60.375V10.8848H69.7738V0Z" fill="#C4A946"/>
<path d="M102.142 0H73.8125V10.8727H102.142V0Z" fill="#08536B"/>
<path d="M69.7738 42.9324H60.375V53.8172H69.7738V42.9324Z" fill="#C4A946"/>
<path d="M495.643 57.0735L495.695 57.0976L495.647 51.8989V13.8888L485.169 9.51963L505.521 10.9532V51.9674C516.454 48.2263 523.235 39.0812 523.235 26.9119C523.231 10.8163 511.372 0 493.718 0H472.5V47.1069H472.552L472.5 47.1149L495.643 57.0735ZM489.937 29.775C491.157 29.775 492.143 30.7616 492.143 31.9818C492.143 33.2019 491.157 34.1885 489.937 34.1885C488.716 34.1885 487.73 33.2019 487.73 31.9818C487.73 30.7616 488.716 29.775 489.937 29.775Z" fill="#08536B"/>
<path d="M489.925 34.1866C491.144 34.1866 492.132 33.1986 492.132 31.9798C492.132 30.7611 491.144 29.7731 489.925 29.7731C488.707 29.7731 487.719 30.7611 487.719 31.9798C487.719 33.1986 488.707 34.1866 489.925 34.1866Z" fill="#C4A946"/>
<path d="M531.33 57.1007C530.081 57.1007 528.954 56.8027 527.939 56.2067C526.928 55.6107 526.123 54.8094 525.523 53.7946C524.923 52.7838 524.625 51.6563 524.625 50.42C524.625 49.1838 524.923 48.0562 525.523 47.0374C526.123 46.0226 526.928 45.2132 527.939 44.6132C528.95 44.0132 530.081 43.7152 531.33 43.7152C532.578 43.7152 533.678 44.0132 534.688 44.6132C535.699 45.2132 536.504 46.0226 537.104 47.0374C537.704 48.0562 538.002 49.1797 538.002 50.42C538.002 51.6603 537.7 52.7838 537.104 53.7946C536.504 54.8053 535.699 55.6107 534.688 56.2067C533.678 56.8027 532.554 57.1007 531.33 57.1007ZM531.33 55.7758C532.365 55.7758 533.279 55.5543 534.072 55.1154C534.865 54.6724 535.482 54.0523 535.929 53.2509C536.376 52.4496 536.597 51.5073 536.597 50.4241C536.597 49.3408 536.376 48.3945 535.929 47.5891C535.482 46.7837 534.865 46.1555 534.072 45.7126C533.283 45.2656 532.369 45.0441 531.33 45.0441C530.291 45.0441 529.349 45.2656 528.551 45.7126C527.754 46.1595 527.138 46.7837 526.703 47.5891C526.268 48.3945 526.047 49.3408 526.047 50.4241C526.047 51.5073 526.264 52.4496 526.703 53.2509C527.138 54.0523 527.754 54.6724 528.551 55.1154C529.349 55.5584 530.275 55.7758 531.33 55.7758ZM528.753 53.7744V47.1421H531.761C532.49 47.1421 533.053 47.2831 533.452 47.5649C533.851 47.8468 534.048 48.2737 534.048 48.8374C534.048 49.3368 533.903 49.7234 533.617 50.0012C533.327 50.2791 533.013 50.4845 532.667 50.6214L533.947 53.7744H532.61L531.503 50.7382H530.005V53.7744H528.753ZM530.005 49.7435H531.616C531.934 49.7435 532.204 49.6871 532.429 49.5703C532.655 49.4536 532.767 49.2442 532.767 48.9381C532.767 48.7086 532.679 48.5113 532.502 48.3462C532.324 48.1851 532.002 48.1005 531.531 48.1005H530.005V49.7395V49.7435Z" fill="#08536B"/>
</g>
<defs>
<clipPath id="clip0_671_77372">
<rect width="538" height="57.1017" fill="white"/>
</clipPath>
</defs>
</svg>
