<svg width="40" height="39" viewBox="0 0 40 39" fill="none" xmlns="http://www.w3.org/2000/svg">
<path d="M11.4674 14.5919C11.1613 14.8951 10.7417 15.0848 10.2763 15.0848C9.34576 15.0848 8.59229 14.3314 8.59229 13.4013C8.59229 12.9362 8.7794 12.5141 9.08527 12.2107C9.39126 11.9074 9.81116 11.7179 10.2763 11.7179C10.7417 11.7179 11.1613 11.9074 11.4674 12.2107C11.7733 12.5141 11.9604 12.9362 11.9604 13.4013C11.9604 13.8664 11.7733 14.2886 11.4674 14.5919ZM27.2991 11.6875C27.1523 9.76643 26.51 7.9363 25.4759 6.33126C25.1976 5.94703 24.8842 5.57538 24.5302 5.21651C22.9953 3.67205 20.9168 2.54472 18.3578 1.86731C16.4638 1.36421 14.623 1.13923 12.3876 1.13923C12.279 1.13923 12.1703 1.13923 12.059 1.14186C7.97028 2.91885 4.59202 6.01524 2.46039 9.89541C2.43001 9.94836 2.40212 10.0015 2.37438 10.0571C2.258 10.272 2.14675 10.4893 2.03814 10.7092C2.01025 10.7674 1.97987 10.8231 1.95463 10.8812C1.83326 11.1339 1.71701 11.3892 1.60577 11.6497C1.56526 11.7431 1.52725 11.8417 1.48938 11.9378C1.42113 12.1046 1.35289 12.2714 1.28963 12.4407L1.15314 12.8124C1.10001 12.9641 1.04938 13.1156 0.998741 13.2698C0.950751 13.4114 0.905254 13.5555 0.859755 13.6996C0.791362 13.9246 0.728252 14.152 0.667491 14.3821C0.629626 14.5262 0.594255 14.6702 0.558885 14.8143C0.526009 14.9534 0.493134 15.0923 0.462753 15.2314C0.432372 15.378 0.399497 15.5272 0.371758 15.6762C0.341378 15.8279 0.316134 15.9821 0.288249 16.1388C0.257868 16.3234 0.227487 16.5079 0.202243 16.6924C0.171863 16.9073 0.144124 17.1196 0.11888 17.337C0.106112 17.4634 0.0959851 17.5923 0.08351 17.7187C0.0682463 17.9032 0.0531292 18.0878 0.0405076 18.2722C0.0353706 18.3885 0.0277388 18.5074 0.0227487 18.6236C0.0101268 18.9016 0.00249502 19.1798 0 19.4578V19.526C0 19.852 0.00763183 20.1756 0.0252437 20.4967C0.0277388 20.5523 0.0303806 20.6054 0.0328756 20.6584C0.0504875 20.9415 0.0707411 21.2222 0.0986267 21.5027C0.101122 21.5432 0.106112 21.5835 0.108754 21.6215C0.93299 29.4902 6.31403 36.0017 13.5685 38.4739C13.4903 38.0896 13.4093 37.6471 13.3334 37.1444C13.2323 36.4593 13.1463 35.6757 13.0983 34.8365C12.638 34.4674 12.236 34.1135 11.8845 33.7572C10.2688 32.1193 6.76151 27.9611 9.06513 24.7407C9.64415 23.9318 10.5343 23.449 11.4472 23.449C12.0665 23.449 12.6988 23.487 13.3107 23.5199C14.1628 23.5678 15.0453 23.6185 15.9329 23.578C16.9898 23.5275 17.9684 23.406 18.8811 23.2241C20.6335 22.8752 22.1382 22.2888 23.4202 21.437C23.946 21.0907 24.4543 20.6584 24.9247 20.1732C26.6796 17.9437 27.5417 14.8877 27.2991 11.6875Z" fill="#CAD400"/>
<path d="M26.9828 24.4875C26.9337 24.4875 26.8841 24.4897 26.8345 24.494C26.3666 24.5351 25.9486 24.7527 25.6574 25.1067C25.3689 25.4573 25.2369 25.9032 25.2861 26.3622C25.376 27.2025 26.1193 27.8608 26.9783 27.8608C27.0366 27.8608 27.0956 27.8577 27.1537 27.8517C28.0627 27.7575 28.7627 26.9158 28.682 26.0134C28.6054 25.1579 27.859 24.4875 26.9828 24.4875ZM20.1082 38.834C18.7406 38.2102 17.5857 37.1923 16.5723 35.7329C14.8135 33.1997 14.1182 30.4749 14.5057 27.6344C14.6391 26.6569 14.9319 25.7425 15.3772 24.9123C15.4032 24.9124 15.4291 24.9124 15.4553 24.9124C15.7077 24.9124 15.9353 24.9074 16.1514 24.8971C17.2426 24.8454 18.3 24.7189 19.2941 24.5214C21.238 24.1345 22.8774 23.4864 24.3058 22.5401C24.8988 22.1482 25.4791 21.6605 26.0301 21.091L26.0471 21.0723L26.1099 21.0007L26.1182 20.9902C28.07 18.5124 29.0374 15.0853 28.7725 11.5877C28.6143 9.49627 27.9128 7.4308 26.7439 5.61494L26.7011 5.55259C26.3723 5.10083 26.0097 4.67465 25.6232 4.28569C23.9203 2.57252 21.6419 1.32884 18.8511 0.588925C18.2878 0.439441 17.7279 0.313994 17.1602 0.210707C18.1082 0.0706126 19.0686 2.45615e-06 20.0346 2.45615e-06C23.8836 2.45615e-06 27.6091 1.12114 30.8086 3.24227L30.8914 3.29669C30.9313 3.3228 30.9709 3.34864 31.0101 3.37549C31.1783 3.49005 31.3493 3.61433 31.5 3.72393C31.6317 3.81989 31.7636 3.91717 31.8935 4.01692C32.0171 4.11154 32.1386 4.2072 32.2589 4.30387C32.4235 4.43668 32.5922 4.57753 32.7599 4.72202L32.8258 4.77865C32.8908 4.83439 32.9558 4.89017 33.0196 4.94707C33.2348 5.13929 33.4504 5.34042 33.6598 5.54482C33.6779 5.56225 33.6959 5.57926 33.714 5.59631C33.7294 5.61081 33.7448 5.62519 33.7598 5.64003C34.2677 6.14264 34.7534 6.67906 35.2032 7.23362C35.2135 7.24654 35.2684 7.31666 35.2684 7.31666C35.4661 7.56316 35.6602 7.81754 35.8455 8.07283L35.8884 8.13341C35.9021 8.15689 35.9426 8.22908 35.9426 8.22908L35.9582 8.25094C35.9988 8.30818 36.0369 8.36729 36.075 8.42626C36.1016 8.46735 36.1281 8.50829 36.1553 8.54893C36.6742 9.5818 37.3472 11.3764 37.5852 12.7033C38.0713 15.3756 37.8283 18.0324 36.8429 20.8266C36.2667 22.3494 34.8584 25.3188 31.8916 28.134C30.1936 29.683 28.2431 31.0231 26.3566 32.3192L26.2366 32.4016C24.8903 33.3266 23.6907 34.1795 22.645 35.2508C22.1278 35.7807 21.4132 36.6139 21.1786 37.7282C21.0774 38.208 21.0457 38.6262 21.083 38.997C20.902 39.0076 20.4665 38.9974 20.1082 38.834Z" fill="#2899C4"/>
<path d="M39.5577 19.4782V19.5549C39.5566 19.6226 39.5547 19.6902 39.5524 19.7587C39.5506 19.8089 39.5494 19.8601 39.5483 19.9113L39.5453 20.0557C39.5434 20.2053 39.54 20.3456 39.534 20.4848L39.531 20.5442C39.4961 21.2109 39.4224 21.9041 39.3109 22.6045C39.1346 23.7137 38.8611 24.8114 38.4974 25.8661C38.4535 25.9963 38.405 26.1242 38.3569 26.2523L38.3336 26.3167C35.7561 33.2393 29.8325 38.0923 22.5172 38.8664C22.5295 38.7751 22.4934 38.3713 22.6242 38.0453C22.842 37.5018 23.1272 36.9566 23.7449 36.3237C24.6945 35.3499 25.7835 34.5767 27.107 33.6674L27.2268 33.5855C29.1557 32.2602 31.1513 30.8892 32.9348 29.2618C36.1412 26.2205 37.6614 23.008 38.2821 21.3645L38.2893 21.345C38.6019 20.4612 39.3488 16.8218 38.8138 14.2166C38.8089 14.1972 38.8059 14.1818 38.8036 14.1705C38.8036 14.1654 38.8025 14.1613 38.8025 14.1582C38.8243 14.2351 38.8457 14.3108 38.866 14.3877C38.8671 14.3897 38.8682 14.3918 38.8682 14.3948C39.1406 15.3901 39.3341 16.4122 39.4461 17.4558C39.4581 17.5621 39.4664 17.6676 39.4758 17.7741L39.4837 17.8693C39.4961 18.0128 39.5074 18.1582 39.5167 18.3036C39.5239 18.4183 39.531 18.5321 39.5359 18.6446C39.5506 18.9662 39.5577 19.2325 39.5577 19.4782Z" fill="#9AE1EA"/>
</svg>
