<svg width="174" height="19" viewBox="0 0 174 19" fill="none" xmlns="http://www.w3.org/2000/svg">
<path d="M24.5125 1.64432e-08L19.1114 18.6083H16.6882L12.2795 3.74822L7.87074 18.6083H5.40111L0 1.64432e-08H2.37756L6.73987 15.1259L11.2871 1.64432e-08H13.4107L17.8651 15.2056L22.3198 1.64432e-08H24.5125Z" fill="#EEF0EC"/>
<path d="M34.3195 12.1749V18.6083H32.0344V12.1218L25.6175 1.64432e-08H28.0875L33.2577 9.80913L38.4509 1.64432e-08H40.736L34.3195 12.1749Z" fill="#EEF0EC"/>
<path d="M42.5463 1.64432e-08H44.8544V16.2956H53.6024V18.6083H42.5463V1.64432e-08Z" fill="#EEF0EC"/>
<path d="M62.2288 16.2956C66.2218 16.2956 68.7838 13.4778 68.7838 9.30398C68.7838 5.13035 66.2218 2.31252 62.2288 2.31252H57.8665V16.2956H62.2288ZM55.558 1.64432e-08H62.3673C67.5605 1.64432e-08 71.092 3.77469 71.092 9.30398C71.092 14.8335 67.5605 18.6083 62.3673 18.6083H55.558V1.64432e-08Z" fill="#EEF0EC"/>
<path d="M87.158 6.75214C87.158 4.70507 86.0042 3.50903 83.719 3.50903H80.6721V9.96874H83.719C86.0042 9.96874 87.158 8.77236 87.158 6.75214ZM90.9434 6.75214C90.9434 10.8992 88.2429 13.4778 83.9266 13.4778H80.6721V18.6083H76.9331V1.64432e-08H83.9266C88.2429 1.64432e-08 90.9434 2.57847 90.9434 6.75214Z" fill="#EEF0EC"/>
<path d="M93.5759 1.64432e-08H97.3148V15.0991H105.417V18.6083H93.5759V1.64432e-08Z" fill="#EEF0EC"/>
<path d="M118.966 11.3509L116.404 4.22673L113.842 11.3509H118.966ZM120.143 14.6208H112.642L111.211 18.6083H107.379L114.58 1.64432e-08H118.274L125.498 18.6083H121.574L120.143 14.6208Z" fill="#EEF0EC"/>
<path d="M141.656 1.64432e-08V18.6083H138.586L130.531 7.31019V18.6083H126.838V1.64432e-08H129.931L137.963 11.2978V1.64432e-08H141.656Z" fill="#EEF0EC"/>
<path d="M157.63 15.1524V18.6083H145.12V3.83114e-06H157.33V3.4558H148.836V7.49644H156.338V10.8461H148.836V15.1524H157.63Z" fill="#EEF0EC"/>
<path d="M164.648 3.50903H159.478V1.64432e-08H173.557V3.50903H168.387V18.6083H164.648V3.50903Z" fill="#EEF0EC"/>
</svg>
